<svg xmlns="http://www.w3.org/2000/svg" viewBox="0 0 24 24" role="img" aria-label="Canva">
  <defs>
    <linearGradient id="canvaGradient" x1="3" x2="21" y1="21" y2="3" gradientUnits="userSpaceOnUse">
      <stop stop-color="#00c4cc"/>
      <stop offset=".5" stop-color="#7d2ae8"/>
      <stop offset="1" stop-color="#00c4cc"/>
    </linearGradient>
  </defs>
  <circle cx="12" cy="12" r="10.5" fill="url(#canvaGradient)"/>
  <path fill="#fff" d="M13.9 15.2c-1 .9-2.2 1.4-3.4 1.4-2.4 0-4.1-1.6-4.1-4 0-3 2.5-5.2 5.4-5.2 1.7 0 3 .8 3 2.1 0 .9-.6 1.5-1.4 1.5-.6 0-1-.3-1-.8 0-.3.1-.5.3-.7-.2-.3-.6-.5-1.1-.5-1.6 0-2.9 1.6-2.9 3.3 0 1.4.9 2.4 2.3 2.4.8 0 1.5-.3 2.2-.9l.7 1.4Zm2.4-1c.7 0 1.2.5 1.2 1.1 0 .7-.5 1.2-1.2 1.2-.6 0-1.1-.5-1.1-1.2 0-.6.5-1.1 1.1-1.1Z"/>
</svg>
