<svg xmlns="http://www.w3.org/2000/svg" viewBox="0 0 24 24" role="img" aria-label="Adobe Illustrator">
  <rect width="24" height="24" rx="4" fill="#330000"/>
  <rect x="1.5" y="1.5" width="21" height="21" rx="3" fill="none" stroke="#ff9a00" stroke-width="1.4"/>
  <path fill="#ff9a00" d="M4.6 16.9 8 6.6h2.7l3.5 10.3h-2.3l-.7-2.2H7.5l-.7 2.2H4.6Zm3.4-4h2.7l-.8-2.6c-.2-.7-.4-1.3-.5-1.8h-.1c-.1.5-.3 1.1-.5 1.8L8 12.9Zm7.2-5.8c0-.7.5-1.1 1.2-1.1s1.2.4 1.2 1.1-.5 1.1-1.2 1.1-1.2-.4-1.2-1.1Zm.1 9.8V9.4h2.1v7.5h-2.1Z"/>
</svg>
