<svg xmlns="http://www.w3.org/2000/svg" viewBox="0 0 24 24" role="img" aria-label="Adobe Photoshop">
  <rect width="24" height="24" rx="4" fill="#001e36"/>
  <rect x="1.5" y="1.5" width="21" height="21" rx="3" fill="none" stroke="#31a8ff" stroke-width="1.4"/>
  <path fill="#31a8ff" d="M5.7 16.9V6.6h4.1c2.5 0 4 1.4 4 3.5 0 2.2-1.6 3.6-4.2 3.6H7.9v3.2H5.7Zm2.2-5.1h1.6c1.3 0 2-.6 2-1.7s-.7-1.7-2-1.7H7.9v3.4Zm9.2 5.3c-1 0-1.9-.2-2.6-.7v-1.8c.8.5 1.7.8 2.6.8.7 0 1-.2 1-.6s-.3-.6-1.2-.9c-1.7-.5-2.5-1.2-2.5-2.4 0-1.4 1.1-2.3 2.9-2.3.9 0 1.7.2 2.3.5v1.8c-.6-.4-1.4-.6-2.2-.6-.6 0-.9.2-.9.6s.3.5 1.2.8c1.8.6 2.5 1.2 2.5 2.5.1 1.5-1 2.3-3.1 2.3Z"/>
</svg>
